<?xml version="1.0" encoding="UTF-8"?>
<svg width="542px" height="552px" viewBox="0 0 542 552" version="1.1" xmlns="http://www.w3.org/2000/svg" xmlns:xlink="http://www.w3.org/1999/xlink">
    <!-- Generator: Sketch 50.2 (55047) - http://www.bohemiancoding.com/sketch -->
    <title>box</title>
    <desc>Created with Sketch.</desc>
    <defs>
        <linearGradient x1="50%" y1="0%" x2="50%" y2="100%" id="linearGradient-1">
            <stop stop-color="#FFFFFF" stop-opacity="0.5" offset="0%"></stop>
            <stop stop-color="#000000" stop-opacity="0.5" offset="100%"></stop>
        </linearGradient>
        <path d="M540.933,106.575 L541.31,105.576 L271.049,0 L1.228,106.671 L0.347,106.321 L0.347,107.005 L0.309,107.026 L0.347,107.141 L0.347,445.792 L270.926,551.851 L541.543,445.787 L541.543,106.326 L540.933,106.575 Z M270.797,20.755 L362.463,53.584 L112.578,150.6 L27.931,117.21 L270.797,20.755 Z M261.282,527.927 L159.94,487.013 L109.081,467.906 L19.685,432.639 L19.685,134.737 L108.184,169.646 L108.184,244.136 L116.071,241.934 L121.401,249.258 L128.822,247.526 L136.009,255.118 L142.281,252.957 L152.406,262.998 L152.406,187.087 L160.283,190.197 L261.282,230.031 L261.282,527.927 Z M270.948,213.077 L172.14,174.094 L415.832,75.33 L516.336,116.274 M280.606,527.927 L280.606,230.032 L522.195,134.731 L522.195,432.632 L280.606,527.927 Z" id="path-2"></path>
        <radialGradient cx="23.9350602%" cy="-12.6025817%" fx="23.9350602%" fy="-12.6025817%" r="85.7817016%" gradientTransform="translate(0.239351,-0.126026),scale(0.639113,1.000000),rotate(90.000000),translate(-0.239351,0.126026)" id="radialGradient-3">
            <stop stop-color="#FFFFFF" stop-opacity="0.5" offset="0%"></stop>
            <stop stop-color="#000000" stop-opacity="0.5" offset="100%"></stop>
        </radialGradient>
        <path d="M58,263 L67.2736428,266.771285 C71.3754463,268.439353 74.4785498,271.29048 76.6186212,275.388833 C78.6160212,279.180853 79.6147212,283.907621 79.6147212,289.519472 C79.6147212,295.08166 78.5803533,298.981646 76.5472855,301.233933 C74.4072141,303.54203 71.3041106,303.869297 67.202307,302.201228 L58,298.458953 L58,263 Z M61.8877964,269.199642 L61.8877964,295.421389 L66.4889499,297.292526 C69.699057,298.597971 72.0888034,298.477229 73.5868534,296.950954 C75.0492355,295.410173 75.7982605,292.437059 75.7982605,287.967443 C75.7982605,283.398502 75.0492355,279.81618 73.6225213,277.150162 C72.1244713,274.405471 69.7703927,272.405234 66.5602856,271.099789 L61.8877964,269.199642 Z M91.5277853,285.722865 C94.2385424,286.825241 96.2359424,288.581103 97.5199853,290.990452 C98.6256888,293.078965 99.1963745,295.694839 99.1963745,298.82357 L99.1963745,315.212162 L95.7009246,313.790677 L95.7009246,310.165322 C94.9875674,311.166446 94.095871,311.846732 93.0258353,312.15652 C91.8131282,312.457951 90.3864139,312.324714 88.7456925,311.657487 C86.8196282,310.87422 85.3215783,309.569739 84.2515426,307.793706 C83.0745033,305.974158 82.5038176,304.003895 82.5038176,301.868412 C82.5038176,298.987993 83.3241783,297.086798 84.9648997,296.214491 C86.4629497,295.333827 88.6030211,295.459188 91.3137782,296.462238 L95.4512496,297.995825 L95.4512496,296.952914 C95.4512496,293.377221 94.0602032,291.023682 91.2781103,289.892297 C90.1010711,289.413634 89.1380389,289.319975 88.4246818,289.625825 C87.5686532,289.97298 87.0336354,290.798316 86.8196282,292.151496 L83.0745033,290.181515 C83.4668497,287.559975 84.4655497,285.880293 86.0349354,285.227288 C87.390314,284.586578 89.2450425,284.794549 91.5277853,285.722865 Z M95.4512496,301.819829 L91.5634532,300.387778 C88.1036711,299.080123 86.391614,300.072407 86.391614,303.250801 C86.391614,304.244049 86.6769568,305.154687 87.2833104,306.046882 C87.8539961,306.924572 88.6386889,307.591318 89.6017211,307.982951 C91.2067746,308.635674 92.5621532,308.491588 93.7035246,307.614861 C94.844896,306.738135 95.4512496,305.296197 95.4512496,303.309701 L95.4512496,301.819829 Z M109.112039,285.275455 L109.112039,293.569075 L113.320846,295.280659 L113.320846,299.65095 L109.112039,297.939366 L109.112039,312.838086 C109.112039,313.53336 109.219042,314.073499 109.433049,314.508165 C109.647057,314.893169 109.968067,315.222363 110.431749,315.410927 L112.857164,316.397264 L112.857164,320.767555 L109.825396,319.534635 C108.25601,318.896417 107.078971,317.821805 106.365614,316.389471 C105.652257,315.0068 105.331246,313.336721 105.331246,311.300562 L105.331246,296.401843 L101.907132,295.009368 L101.907132,290.639077 L105.331246,292.031551 L105.331246,285.923076 L109.112039,285.275455 Z M124.663224,299.197957 C127.373981,300.300332 129.371381,302.056195 130.655424,304.465544 C131.761128,306.554056 132.331813,309.16993 132.331813,312.298662 L132.331813,328.687253 L128.836363,327.265769 L128.836363,323.640414 C128.123006,324.641537 127.23131,325.321824 126.161274,325.631612 C124.948567,325.933042 123.521853,325.799806 121.881131,325.132579 C119.955067,324.349312 118.457017,323.044831 117.386981,321.268798 C116.209942,319.44925 115.639256,317.478987 115.639256,315.343504 C115.639256,312.463084 116.459617,310.56189 118.100339,309.689583 C119.598389,308.808919 121.73846,308.934279 124.449217,309.93733 L128.586688,311.470916 L128.586688,310.428006 C128.586688,306.852313 127.195642,304.498774 124.413549,303.367388 C123.23651,302.888725 122.273478,302.795066 121.560121,303.100916 C120.704092,303.448071 120.169074,304.273407 119.955067,305.626587 L116.209942,303.656607 C116.602289,301.035067 117.600989,299.355384 119.170374,298.70238 C120.525753,298.06167 122.380481,298.26964 124.663224,299.197957 Z M128.586688,315.294921 L124.698892,313.862869 C121.23911,312.555215 119.527053,313.547499 119.527053,316.725893 C119.527053,317.719141 119.812396,318.629779 120.418749,319.521974 C120.989435,320.399664 121.774128,321.06641 122.73716,321.458043 C124.342214,322.110765 125.697592,321.96668 126.838964,321.089953 C127.980335,320.213226 128.586688,318.771289 128.586688,316.784793 L128.586688,315.294921 Z M137.004303,295.128448 L140.892099,296.709487 L140.892099,311.657869 L154.231877,317.082717 L154.231877,302.134335 L158.119674,303.715374 L158.119674,339.174327 L154.231877,337.593288 L154.231877,321.70132 L140.892099,316.276472 L140.892099,332.16844 L137.004303,330.587401 L137.004303,295.128448 Z M162.756495,315.384509 L166.537288,316.922033 L166.537288,332.565689 C166.537288,334.750834 166.858299,336.470575 167.535988,337.739417 C168.178009,338.993754 169.248045,339.975189 170.710427,340.569892 C171.709127,340.97603 172.600824,340.742705 173.456852,339.998251 C174.312881,339.204134 174.919234,337.911184 175.240245,336.154557 L175.240245,320.461239 L179.021038,321.998763 L179.021038,347.674223 L175.240245,346.136699 L175.240245,342.660331 C173.670859,344.803208 171.744795,345.410488 169.426384,344.467667 C164.967902,342.654549 162.756495,338.278875 162.756495,331.375802 L162.756495,315.384509 Z M183.336849,313.275095 L187.117641,314.812619 L187.117641,329.11539 C188.615691,326.695191 190.47042,325.959576 192.753163,326.887892 C195.392584,327.961258 197.46132,330.143429 198.995038,333.448911 C200.386084,336.497724 201.099441,339.916554 201.099441,343.690896 C201.099441,347.614226 200.386084,350.552183 198.95937,352.455105 C197.389984,354.498657 195.285581,354.983751 192.574823,353.881375 C190.042406,352.851524 188.152009,350.79154 186.867966,347.786242 L186.867966,350.865311 L183.336849,349.429321 L183.336849,313.275095 Z M191.897134,330.81074 C190.47042,330.230542 189.329049,330.51132 188.47302,331.752398 C187.47432,333.034781 187.010638,335.081025 187.010638,337.862119 L187.010638,338.309081 C187.010638,340.891526 187.402984,343.136901 188.187677,345.094869 C189.079374,347.245339 190.363416,348.711102 192.004138,349.37833 C193.858866,350.132587 195.214245,349.740189 196.105941,348.265304 C196.819298,346.966206 197.211645,344.940614 197.211645,342.109858 C197.211645,339.279101 196.819298,336.934401 196.034606,335.12542 C195.142909,332.97495 193.751863,331.564997 191.897134,330.81074 Z" id="path-4"></path>
    </defs>
    <g id="Page-1" stroke="none" stroke-width="1" fill="none" fill-rule="evenodd">
        <g id="box">
            <g id="color" transform="translate(19.000000, 18.000000)">
                <polygon id="right" fill="#75B3FF" points="260.949219 211.978813 260.949219 510.050781 503.949219 414.487234 503.949219 116.050781"></polygon>
                <polygon id="top" fill="#FFF89E" transform="translate(254.615234, 98.599609) scale(1, -1) translate(-254.615234, -98.599609) " points="254.615234 196.53125 4.63671875 97.9257813 250.824219 0.66796875 504.59375 102.203125"></polygon>
                <polygon id="left" fill="#FFCF81" transform="translate(121.500000, 313.000000) scale(-1, 1) translate(-121.500000, -313.000000) " points="0 211.928032 0 510 243 414.436452 243 116"></polygon>
            </g>
            <g id="frame" fill-rule="nonzero">
                <g id="box">
                    <use fill="#000000" fill-rule="evenodd" xlink:href="#path-2"></use>
                    <use fill="url(#linearGradient-1)" fill-rule="evenodd" xlink:href="#path-2"></use>
                </g>
            </g>
            <path d="M54.1203477,338 L56.1249295,338.793013 L56.1249295,348.963086 C56.1249295,350.64409 55.8122883,351.781162 55.2053966,352.381577 C54.5065516,352.987641 53.4031121,353.013396 51.8950781,352.416817 C50.5893414,351.900267 49.5962458,351.087147 48.9341821,350.005745 C48.2353371,348.888779 47.8859146,347.61587 47.8859146,346.144992 L47.8859146,345.640691 L49.8904964,346.433704 L49.8904964,346.916993 C49.8904964,348.703059 50.5709507,349.875787 51.9318594,350.414163 C52.7042671,350.719728 53.2559868,350.664825 53.6054093,350.298756 C53.9364412,349.925411 54.1203477,349.199688 54.1203477,348.086023 L54.1203477,338 Z M58.5157151,343.878281 L60.4651248,344.649468 L60.4651248,351.268421 C60.4651248,352.192973 60.6306408,352.930853 60.9800633,353.489335 C61.3110951,354.040542 61.8628149,354.489941 62.6168319,354.788231 C63.1317703,354.99194 63.5915368,354.921674 64.0329125,354.634006 C64.4742883,354.325326 64.7869295,353.797618 64.9524455,353.064619 L64.9524455,346.424654 L66.9018552,347.195842 L66.9018552,358.059329 L64.9524455,357.288141 L64.9524455,355.817263 C64.1432565,356.67385 63.150161,356.869332 61.9547682,356.396435 C59.6559359,355.487015 58.5157151,353.565065 58.5157151,350.644321 L58.5157151,343.878281 Z M72.6765219,349.186127 C75.1408701,350.161024 76.5017788,351.834078 76.7224667,354.21175 L74.8282289,353.462388 C74.6811037,352.815834 74.4604158,352.329292 74.1477746,351.974473 C73.8167427,351.591366 73.3018043,351.261581 72.6397406,350.999668 C72.0512395,350.766857 71.6098638,350.676298 71.3156132,350.770018 C70.9661907,350.841912 70.8006748,351.112634 70.8006748,351.532885 C70.8006748,351.911111 71.058144,352.328154 71.5730824,352.805027 C71.9041143,353.104084 72.5293967,353.561572 73.4857109,354.213053 C74.5707597,354.936474 75.3799487,355.613803 75.8948871,356.195739 C76.6489041,357.040355 77.0351079,357.949589 77.0351079,358.916166 C77.0351079,361.206534 75.6190272,361.802022 72.8052565,360.688893 C70.1937831,359.655792 68.796093,357.8211 68.5754051,355.21229 L70.4880336,355.968927 C70.5983775,356.748018 70.8374561,357.367912 71.168488,357.793044 C71.4995198,358.197163 72.0144582,358.547961 72.7500846,358.838975 C74.2581185,359.435554 75.0305262,359.236818 75.0305262,358.27024 C75.0305262,357.744927 74.7362757,357.20827 74.1845559,356.695834 C73.8903054,356.411328 73.2466323,355.946565 72.2719274,355.308821 C71.1500973,354.570849 70.359299,353.94282 69.9179232,353.432011 C69.1822969,352.615683 68.8144837,351.734737 68.8144837,350.810185 C68.8144837,349.822595 69.1639062,349.183363 69.8811419,348.920775 C70.5983775,348.637175 71.5363011,348.735055 72.6765219,349.186127 Z M81.5776005,349.492478 L81.5776005,353.001573 L83.7476982,353.860065 L83.7476982,355.709169 L81.5776005,354.850677 L81.5776005,361.154442 C81.5776005,361.448617 81.6327725,361.680569 81.7431164,361.871309 C81.8534604,362.041036 82.0189763,362.190564 82.2580549,362.285144 L83.5086196,362.779868 L83.5086196,364.628972 L81.9454137,364.010567 C81.1362247,363.690452 80.529333,363.198214 80.1615198,362.569419 C79.7937067,361.961636 79.6281907,361.244769 79.6281907,360.383254 L79.6281907,354.07949 L77.8626876,353.381056 L77.8626876,351.531952 L79.6281907,352.230386 L79.6281907,349.645843 L81.5776005,349.492478 Z M95.4625475,358.200289 C97.0073628,358.811418 98.2027556,359.872668 99.0119446,361.411511 C99.7475709,362.795177 100.133775,364.460863 100.152165,366.401293 L92.9430273,363.549355 C93.01659,364.629084 93.2556685,365.543152 93.6970443,366.2851 C94.1384201,367.006034 94.7453118,367.540297 95.5177195,367.845861 C96.1981738,368.11505 96.7498936,368.144197 97.1728787,367.954317 C97.5039106,367.791098 97.7797704,367.416939 98.0372397,366.888418 L99.9866494,367.659605 C99.7659615,368.580903 99.3429764,369.275085 98.6809127,369.685573 C97.8533331,370.177672 96.8050656,370.183228 95.5361101,369.681228 C94.1384201,369.128302 93.01659,368.180204 92.207401,366.872499 C91.3246494,365.472654 90.8832736,363.890205 90.8832736,362.104139 C90.8832736,360.486173 91.2878681,359.301427 92.1338384,358.543441 C92.9430273,357.749892 94.0648575,357.647362 95.4625475,358.200289 Z M95.5177195,360.050206 C94.7820932,359.759192 94.2119827,359.764794 93.7706069,360.094487 C93.3660125,360.417718 93.0901526,361.002002 92.9798086,361.882902 L98.1108023,363.912725 C97.9268957,361.948842 97.0625348,360.661336 95.5177195,360.050206 Z M106.625677,362.616428 C108.979681,363.547673 110.175074,365.491449 110.175074,368.475231 L110.175074,375.178233 L108.225664,374.407046 L108.225664,367.893156 C108.225664,366.044052 107.471647,364.821211 106.000395,364.239183 C105.448675,364.020922 104.952127,364.034613 104.547533,364.336831 C104.106157,364.666524 103.830297,365.250808 103.756734,366.104233 L103.756734,372.639135 L101.807325,371.867948 L101.807325,361.004461 L103.756734,361.775649 L103.756734,363.120452 C104.124548,362.719632 104.547533,362.487727 105.02569,362.403723 C105.503847,362.298707 106.037176,362.383617 106.625677,362.616428 Z M113.834815,361.412945 C114.221019,361.565727 114.552051,361.822759 114.80952,362.218789 C115.066989,362.593807 115.195724,363.001948 115.195724,363.443211 C115.195724,363.884475 115.066989,364.190761 114.80952,364.383081 C114.53366,364.547114 114.202628,364.563246 113.834815,364.417739 C113.467002,364.272232 113.154361,364.001463 112.896892,363.626445 C112.621032,363.223139 112.492297,362.793986 112.492297,362.373735 C112.492297,361.932471 112.621032,361.626185 112.896892,361.462152 C113.154361,361.269832 113.467002,361.267437 113.834815,361.412945 Z M112.86011,365.376948 L114.80952,366.148135 L114.80952,378.06225 C114.80952,380.121479 113.834815,380.786513 111.922187,380.029876 L111.021044,379.673384 L111.021044,377.845292 L111.756671,378.136306 C112.492297,378.427321 112.86011,378.110552 112.86011,377.207012 L112.86011,365.376948 Z M121.816361,368.625869 C123.250832,369.193347 124.409444,370.19802 125.273805,371.632614 C126.119775,373.03892 126.561151,374.579344 126.561151,376.239335 C126.561151,377.878314 126.138165,379.076797 125.292195,379.792758 C124.409444,380.536193 123.250832,380.645185 121.816361,380.077707 C120.381889,379.51023 119.223278,378.484544 118.340526,377.042674 C117.494556,375.657381 117.071571,374.124232 117.071571,372.485254 C117.071571,370.825262 117.494556,369.62678 118.358917,368.897082 C119.223278,368.146371 120.381889,368.058392 121.816361,368.625869 Z M121.816361,370.453961 C120.915219,370.097468 120.216374,370.220243 119.719826,370.843298 C119.27845,371.362104 119.076153,372.185615 119.076153,373.278267 C119.076153,374.370919 119.27845,375.333475 119.719826,376.201498 C120.216374,377.196409 120.915219,377.893123 121.816361,378.249616 C122.717503,378.606108 123.416348,378.46232 123.931286,377.867554 C124.372662,377.327735 124.59335,376.532513 124.59335,375.460873 C124.59335,374.36822 124.372662,373.377377 123.931286,372.509354 C123.416348,371.486155 122.717503,370.810453 121.816361,370.453961 Z M127.407121,371.131752 L129.522047,371.968418 L132.13352,380.923248 L134.63465,373.990966 L136.767966,374.834906 L131.600191,387.814504 L129.522047,386.992389 L131.177206,383.234536 L127.407121,371.131752 Z M146.974781,375.363632 L146.974781,378.872727 L149.144879,379.731219 L149.144879,381.580323 L146.974781,380.721831 L146.974781,387.025595 C146.974781,387.319771 147.029953,387.551723 147.140297,387.742463 C147.250641,387.91219 147.416157,388.061718 147.655236,388.156298 L148.9058,388.651022 L148.9058,390.500126 L147.342594,389.881721 C146.533405,389.561606 145.926514,389.069368 145.558701,388.440573 C145.190887,387.83279 145.025372,387.115923 145.025372,386.254408 L145.025372,379.950644 L143.259868,379.25221 L143.259868,377.403106 L145.025372,378.10154 L145.025372,375.516997 L146.974781,375.363632 Z M150.708085,375.915976 L152.657495,376.687164 L152.657495,382.654727 C153.006917,382.162582 153.448293,381.853902 153.981622,381.770712 C154.459779,381.665695 154.993108,381.750605 155.6,381.990692 C156.740221,382.441764 157.604582,383.161931 158.193083,384.172207 C158.744803,385.125906 159.020662,386.327689 159.020662,387.756542 L159.020662,394.50157 L157.071253,393.730383 L157.071253,387.363581 C157.071253,386.397004 156.887346,385.609824 156.556314,384.974566 C156.188501,384.303745 155.618391,383.826059 154.882764,383.535045 C154.220701,383.273132 153.687372,383.356323 153.282777,383.805629 C152.859792,384.247659 152.657495,384.945095 152.657495,385.890659 L152.657495,391.984298 L150.708085,391.213111 L150.708085,375.915976 Z M165.255096,385.810252 C166.799911,386.421382 167.995304,387.482631 168.804493,389.021474 C169.540119,390.405141 169.926323,392.070827 169.944713,394.011256 L162.735575,391.159318 C162.809138,392.239047 163.048217,393.153116 163.489592,393.895063 C163.930968,394.615998 164.53786,395.15026 165.310268,395.455825 C165.990722,395.725013 166.542442,395.75416 166.965427,395.56428 C167.296459,395.401061 167.572319,395.026903 167.829788,394.498381 L169.779198,395.269568 C169.55851,396.190867 169.135524,396.885048 168.473461,397.295537 C167.645881,397.787635 166.597614,397.793191 165.328658,397.291192 C163.930968,396.738265 162.809138,395.790167 161.999949,394.482462 C161.117197,393.082618 160.675822,391.500169 160.675822,389.714102 C160.675822,388.096136 161.080416,386.911391 161.926386,386.153404 C162.735575,385.359855 163.857406,385.257325 165.255096,385.810252 Z M165.310268,387.66017 C164.574641,387.369156 164.004531,387.374758 163.563155,387.70445 C163.158561,388.027681 162.882701,388.611965 162.772357,389.492865 L167.90335,391.522688 C167.719444,389.558806 166.855083,388.271299 165.310268,387.66017 Z M184.565287,389.309901 L186.514697,390.081088 L186.514697,405.378222 L184.694021,404.657962 L184.694021,403.355184 C184.031958,404.143899 183.038862,404.297356 181.751516,403.788082 C180.353826,403.235155 179.250387,402.231295 178.459588,400.783777 C177.723962,399.442136 177.356149,397.930813 177.356149,396.270822 C177.356149,394.673868 177.705571,393.488309 178.441198,392.728696 C179.213605,391.899583 180.298654,391.761491 181.659563,392.299867 C182.818174,392.758214 183.792879,393.774184 184.565287,395.361514 L184.565287,389.309901 Z M182.100939,394.281554 C181.144624,393.903236 180.427389,393.97671 179.967622,394.551278 C179.563028,395.021597 179.36073,395.86612 179.36073,397.063835 C179.36073,398.26155 179.544637,399.258856 179.930841,400.08404 C180.372217,401.036113 181.089452,401.71909 182.045767,402.097408 C182.891737,402.432074 183.53541,402.287473 184.013567,401.720181 C184.418161,401.186824 184.620459,400.384326 184.620459,399.291674 L184.620459,399.102561 C184.620459,397.925858 184.36299,396.878439 183.884832,395.974853 C183.406675,395.113292 182.818174,394.565293 182.100939,394.281554 Z M193.006599,396.788759 C194.404289,397.341686 195.434166,398.148344 196.096229,399.208734 C196.66634,400.127684 196.96059,401.252691 196.96059,402.576482 L196.96059,409.510623 L195.158306,408.797638 L195.158306,407.263722 C194.790493,407.664541 194.330726,407.923921 193.779007,408.020848 C193.153724,408.109687 192.418098,408.007786 191.572128,407.67312 C190.579032,407.280251 189.806624,406.68051 189.254905,405.894911 C188.648013,405.087486 188.353762,404.235641 188.353762,403.332101 C188.353762,402.113374 188.776747,401.335142 189.622718,401.018419 C190.395125,400.693608 191.498565,400.814941 192.896255,401.325842 L195.029571,402.106746 L195.029571,401.665482 C195.029571,400.152579 194.312336,399.112388 192.877864,398.544911 C192.270973,398.304824 191.774425,398.234465 191.406612,398.341108 C190.965236,398.460676 190.689376,398.792809 190.579032,399.358521 L188.648013,398.405496 C188.85031,397.308822 189.365249,396.630005 190.174438,396.403794 C190.873283,396.175956 191.829597,396.323137 193.006599,396.788759 Z M195.029571,403.724712 L193.02499,402.994736 C191.241096,402.331052 190.358344,402.696261 190.358344,404.041065 C190.358344,404.461315 190.505469,404.855719 190.818111,405.252563 C191.112361,405.642132 191.516956,405.949277 192.013503,406.145712 C192.841083,406.473103 193.539928,406.455391 194.128429,406.120863 C194.71693,405.786336 195.029571,405.19559 195.029571,404.355088 L195.029571,403.724712 Z M202.073193,397.160588 L202.073193,400.669684 L204.243291,401.528175 L204.243291,403.377279 L202.073193,402.518788 L202.073193,408.822552 C202.073193,409.116728 202.128365,409.348679 202.238709,409.539419 C202.349053,409.709146 202.514569,409.858675 202.753648,409.953254 L204.004213,410.447978 L204.004213,412.297083 L202.441007,411.678678 C201.631818,411.358562 201.024926,410.866325 200.657113,410.237529 C200.2893,409.629746 200.123784,408.912879 200.123784,408.051365 L200.123784,401.7476 L198.35828,401.049167 L198.35828,399.200062 L200.123784,399.898496 L200.123784,397.313953 L202.073193,397.160588 Z M210.09152,403.547562 C211.48921,404.100489 212.519087,404.907147 213.181151,405.967536 C213.751261,406.886486 214.045512,408.011494 214.045512,409.335285 L214.045512,416.269425 L212.243227,415.556441 L212.243227,414.022525 C211.875414,414.423344 211.415648,414.682723 210.863928,414.779651 C210.238646,414.86849 209.503019,414.766589 208.657049,414.431922 C207.663954,414.039053 206.891546,413.439313 206.339826,412.653714 C205.732934,411.846288 205.438684,410.994443 205.438684,410.090904 C205.438684,408.872176 205.861669,408.093945 206.707639,407.777222 C207.480047,407.45241 208.583486,407.573743 209.981176,408.084645 L212.114493,408.865548 L212.114493,408.424285 C212.114493,406.911381 211.397257,405.871191 209.962786,405.303713 C209.355894,405.063627 208.859346,404.993267 208.491533,405.099911 C208.050157,405.219478 207.774297,405.551611 207.663954,406.117323 L205.732934,405.164298 C205.935232,404.067624 206.45017,403.388807 207.259359,403.162597 C207.958204,402.934759 208.914518,403.081939 210.09152,403.547562 Z M212.114493,410.483514 L210.109911,409.753539 C208.326017,409.089854 207.443266,409.455064 207.443266,410.799867 C207.443266,411.220118 207.590391,411.614522 207.903032,412.011366 C208.197283,412.400934 208.601877,412.70808 209.098425,412.904515 C209.926004,413.231905 210.624849,413.214193 211.213351,412.879666 C211.801852,412.545138 212.114493,411.954393 212.114493,411.113891 L212.114493,410.483514 Z M76.9063733,379.75171 C78.3408447,380.319188 79.4994561,381.323861 80.3638171,382.758455 C81.2097874,384.164761 81.6511632,385.705185 81.6511632,387.365177 C81.6511632,389.004155 81.228178,390.202638 80.3822077,390.918599 C79.4994561,391.662034 78.3408447,391.771026 76.9063733,391.203548 C75.471902,390.636071 74.3132905,389.610385 73.4305389,388.168516 C72.5845686,386.783222 72.1615835,385.250073 72.1615835,383.611095 C72.1615835,381.951103 72.5845686,380.752621 73.4489296,380.022923 C74.3132905,379.272212 75.471902,379.184233 76.9063733,379.75171 Z M76.9063733,381.579802 C76.0052311,381.22331 75.3063861,381.346085 74.8098383,381.969139 C74.3684625,382.487945 74.1661652,383.311456 74.1661652,384.404108 C74.1661652,385.496761 74.3684625,386.459316 74.8098383,387.327339 C75.3063861,388.32225 76.0052311,389.018965 76.9063733,389.375457 C77.8075156,389.731949 78.5063606,389.588162 79.021299,388.993395 C79.4626748,388.453577 79.6833627,387.658354 79.6833627,386.586714 C79.6833627,385.494061 79.4626748,384.503218 79.021299,383.635195 C78.5063606,382.611996 77.8075156,381.936294 76.9063733,381.579802 Z M83.5086196,382.657738 L85.4580294,383.428925 L85.4580294,390.047877 C85.4580294,390.972429 85.6235453,391.710309 85.9729678,392.268792 C86.3039997,392.819999 86.8557194,393.269398 87.6097364,393.567687 C88.1246749,393.771397 88.5844413,393.70113 89.0258171,393.413463 C89.4671929,393.104782 89.7798341,392.577074 89.94535,391.844076 L89.94535,385.204111 L91.8947598,385.975298 L91.8947598,396.838785 L89.94535,396.067598 L89.94535,394.59672 C89.1361611,395.453307 88.1430655,395.648789 86.9476727,395.175891 C84.6488405,394.266472 83.5086196,392.344522 83.5086196,389.423778 L83.5086196,382.657738 Z M97.0073628,384.488751 L97.0073628,387.997846 L99.1774605,388.856338 L99.1774605,390.705442 L97.0073628,389.846951 L97.0073628,396.150715 C97.0073628,396.44489 97.0625348,396.676842 97.1728787,396.867582 C97.2832227,397.037309 97.4487386,397.186838 97.6878172,397.281417 L98.9383819,397.776141 L98.9383819,399.625245 L97.375176,399.00684 C96.565987,398.686725 95.9590953,398.194488 95.5912821,397.565692 C95.2234689,396.957909 95.057953,396.241042 95.057953,395.379527 L95.057953,389.075763 L93.2924498,388.377329 L93.2924498,386.528225 L95.057953,387.226659 L95.057953,384.642116 L97.0073628,384.488751 Z M100.55676,393.898675 L109.844042,397.572728 L109.844042,399.421832 L100.55676,395.747779 L100.55676,393.898675 Z M116.243991,395.31369 C117.678463,395.881167 118.837074,396.885841 119.701435,398.320435 C120.547405,399.726741 120.988781,401.267165 120.988781,402.927156 C120.988781,404.566135 120.565796,405.764617 119.719826,406.480578 C118.837074,407.224014 117.678463,407.333005 116.243991,406.765528 C114.80952,406.19805 113.650909,405.172364 112.768157,403.730495 C111.922187,402.345201 111.499202,400.812053 111.499202,399.173074 C111.499202,397.513083 111.922187,396.3146 112.786548,395.584902 C113.650909,394.834191 114.80952,394.746212 116.243991,395.31369 Z M116.243991,397.141781 C115.342849,396.785289 114.644004,396.908064 114.147456,397.531119 C113.70608,398.049924 113.503783,398.873435 113.503783,399.966087 C113.503783,401.05874 113.70608,402.021296 114.147456,402.889318 C114.644004,403.88423 115.342849,404.580944 116.243991,404.937436 C117.145134,405.293928 117.843979,405.150141 118.358917,404.555374 C118.800293,404.015556 119.020981,403.220333 119.020981,402.148693 C119.020981,401.056041 118.800293,400.065197 118.358917,399.197174 C117.843979,398.173975 117.145134,397.498273 116.243991,397.141781 Z M126.597932,395.564417 L128.584123,396.350155 L128.584123,398.241284 L126.873792,397.564677 C126.561151,397.440996 126.322072,397.430466 126.174947,397.561376 C126.027822,397.671274 125.954259,397.936348 125.954259,398.335586 L125.954259,399.449251 L128.455388,400.438699 L128.455388,402.266791 L125.954259,401.277343 L125.954259,410.312738 L124.02324,409.548826 L124.02324,400.513431 L121.834751,399.647664 L121.834751,397.819572 L124.02324,398.685339 L124.02324,397.508637 C124.02324,396.584085 124.243928,395.93595 124.685303,395.606257 C125.126679,395.234539 125.751962,395.229751 126.597932,395.564417 Z M129.595609,405.386456 L138.882892,409.060509 L138.882892,410.909614 L129.595609,407.23556 L129.595609,405.386456 Z M143.793197,402.997248 L143.793197,406.506343 L145.963295,407.364835 L145.963295,409.213939 L143.793197,408.355448 L143.793197,414.659212 C143.793197,414.953387 143.848369,415.185339 143.958713,415.376079 C144.069057,415.545806 144.234573,415.695335 144.473652,415.789914 L145.724217,416.284638 L145.724217,418.133742 L144.161011,417.515337 C143.351822,417.195222 142.74493,416.702985 142.377117,416.074189 C142.009304,415.466406 141.843788,414.749539 141.843788,413.888024 L141.843788,407.58426 L140.078284,406.885826 L140.078284,405.036722 L141.843788,405.735156 L141.843788,403.150613 L143.793197,402.997248 Z M147.526501,403.549593 L149.475911,404.32078 L149.475911,410.288343 C149.825333,409.796199 150.266709,409.487519 150.800038,409.404328 C151.278195,409.299312 151.811524,409.384222 152.418416,409.624308 C153.558637,410.07538 154.422998,410.795547 155.011499,411.805823 C155.563219,412.759523 155.839079,413.961305 155.839079,415.390159 L155.839079,422.135186 L153.889669,421.363999 L153.889669,414.997197 C153.889669,414.03062 153.705762,413.24344 153.37473,412.608182 C153.006917,411.937362 152.436807,411.459675 151.70118,411.168661 C151.039117,410.906748 150.505788,410.989939 150.101193,411.439245 C149.678208,411.881276 149.475911,412.578711 149.475911,413.524276 L149.475911,419.617914 L147.526501,418.846727 L147.526501,403.549593 Z M162.073512,413.443868 C163.618327,414.054998 164.81372,415.116247 165.622909,416.65509 C166.358535,418.038757 166.744739,419.704443 166.76313,421.644872 L159.553992,418.792934 C159.627554,419.872663 159.866633,420.786732 160.308009,421.528679 C160.749384,422.249614 161.356276,422.783876 162.128684,423.089441 C162.809138,423.358629 163.360858,423.387777 163.783843,423.197896 C164.114875,423.034677 164.390735,422.660519 164.648204,422.131997 L166.597614,422.903185 C166.376926,423.824483 165.953941,424.518664 165.291877,424.929153 C164.464297,425.421251 163.41603,425.426807 162.147074,424.924808 C160.749384,424.371881 159.627554,423.423783 158.818365,422.116078 C157.935614,420.716234 157.494238,419.133785 157.494238,417.347718 C157.494238,415.729752 157.898832,414.545007 158.744803,413.787021 C159.553992,412.993471 160.675822,412.890942 162.073512,413.443868 Z M162.128684,415.293786 C161.393057,415.002772 160.822947,415.008374 160.381571,415.338067 C159.976977,415.661297 159.701117,416.245581 159.590773,417.126481 L164.721766,419.156305 C164.53786,417.192422 163.673499,415.904916 162.128684,415.293786 Z M168.234382,420.671972 L177.521665,424.346025 L177.521665,426.195129 L168.234382,422.521076 L168.234382,420.671972 Z M179.544637,416.215982 L181.494047,416.987169 L181.494047,423.038782 C182.266454,422.062582 183.222769,421.810524 184.399771,422.276146 C185.76068,422.814523 186.827338,423.803832 187.618136,425.251349 C188.335372,426.585716 188.703185,428.055013 188.703185,429.651967 C188.703185,431.311958 188.335372,432.532266 187.599745,433.29188 C186.790556,434.106442 185.705508,434.244535 184.307818,433.691608 C183.002081,433.175058 182.027376,432.243138 181.365312,430.930598 L181.365312,432.233376 L179.544637,431.513116 L179.544637,416.215982 Z M183.958395,423.908617 C183.222769,423.617603 182.634268,423.69998 182.192892,424.197773 C181.677953,424.70849 181.438875,425.559475 181.438875,426.736177 L181.438875,426.92529 C181.438875,428.017943 181.641172,428.980498 182.045767,429.83397 C182.505533,430.772306 183.167597,431.433457 184.013567,431.768123 C184.969881,432.146441 185.668726,432.023666 186.128493,431.428086 C186.496306,430.901192 186.698603,430.056668 186.698603,428.858953 C186.698603,427.661238 186.496306,426.656657 186.091711,425.866223 C185.631945,424.927887 184.914709,424.286935 183.958395,423.908617 Z M194.919227,426.437648 C196.353699,427.005126 197.51231,428.009799 198.376671,429.444393 C199.222641,430.850699 199.664017,432.391123 199.664017,434.051114 C199.664017,435.690093 199.241032,436.888576 198.395062,437.604537 C197.51231,438.347972 196.353699,438.456964 194.919227,437.889486 C193.484756,437.322009 192.326145,436.296323 191.443393,434.854453 C190.597423,433.46916 190.174438,431.936011 190.174438,430.297032 C190.174438,428.637041 190.597423,427.438559 191.461784,426.70886 C192.326145,425.95815 193.484756,425.870171 194.919227,426.437648 Z M194.919227,428.26574 C194.018085,427.909247 193.31924,428.032022 192.822692,428.655077 C192.381317,429.173883 192.179019,429.997393 192.179019,431.090046 C192.179019,432.182698 192.381317,433.145254 192.822692,434.013277 C193.31924,435.008188 194.018085,435.704902 194.919227,436.061395 C195.82037,436.417887 196.519215,436.274099 197.034153,435.679333 C197.475529,435.139514 197.696217,434.344292 197.696217,433.272652 C197.696217,432.179999 197.475529,431.189156 197.034153,430.321133 C196.519215,429.297934 195.82037,428.622232 194.919227,428.26574 Z M200.932973,429.110864 L203.213414,430.013008 L205.309949,434.288456 L207.388094,431.664513 L209.668535,432.566657 L206.376607,436.349405 L210.07313,443.590201 L207.792688,442.688057 L205.309949,437.566413 L202.80882,440.716437 L200.509987,439.807018 L204.2249,435.498189 L200.932973,429.110864 Z M212.666213,441.611232 C213.052416,441.764014 213.383448,442.021046 213.640917,442.417076 C213.898387,442.792094 214.027121,443.200235 214.027121,443.641499 C214.027121,444.082762 213.879996,444.381773 213.622527,444.574093 C213.365058,444.745401 213.034026,444.761533 212.666213,444.616026 C212.280009,444.463244 211.967368,444.192475 211.709898,443.796444 C211.452429,443.400413 211.323695,442.992273 211.323695,442.572022 C211.323695,442.130758 211.452429,441.824472 211.709898,441.653164 C211.967368,441.460844 212.280009,441.458449 212.666213,441.611232 Z" id="slogan" fill="#6D6D6D"></path>
            <g id="title">
                <use fill="#3E3E3E" xlink:href="#path-4"></use>
                <use fill="url(#radialGradient-3)" xlink:href="#path-4"></use>
            </g>
        </g>
    </g>
</svg>